<?xml version="1.0" encoding="UTF-8" standalone="no"?>
<!-- Created with Inkscape (http://www.inkscape.org/) -->

<svg
   xmlns:dc="http://purl.org/dc/elements/1.1/"
   xmlns:cc="http://creativecommons.org/ns#"
   xmlns:rdf="http://www.w3.org/1999/02/22-rdf-syntax-ns#"
   xmlns:svg="http://www.w3.org/2000/svg"
   xmlns="http://www.w3.org/2000/svg"
   xmlns:sodipodi="http://sodipodi.sourceforge.net/DTD/sodipodi-0.dtd"
   xmlns:inkscape="http://www.inkscape.org/namespaces/inkscape"
   width="76.199997mm"
   height="128.5mm"
   viewBox="0 0 76.199997 128.5"
   version="1.1"
   id="svg8"
   inkscape:version="0.92.4 (unknown)"
   sodipodi:docname="BM.svg">
  <defs
     id="defs2" />
  <sodipodi:namedview
     id="base"
     pagecolor="#ffffff"
     bordercolor="#666666"
     borderopacity="1.0"
     inkscape:pageopacity="0.0"
     inkscape:pageshadow="2"
     inkscape:zoom="0.98994949"
     inkscape:cx="140.60752"
     inkscape:cy="220.54166"
     inkscape:document-units="mm"
     inkscape:current-layer="layer1"
     showgrid="false"
     showguides="false"
     inkscape:window-width="1299"
     inkscape:window-height="713"
     inkscape:window-x="67"
     inkscape:window-y="27"
     inkscape:window-maximized="1" />
  <metadata
     id="metadata5">
    <rdf:RDF>
      <cc:Work
         rdf:about="">
        <dc:format>image/svg+xml</dc:format>
        <dc:type
           rdf:resource="http://purl.org/dc/dcmitype/StillImage" />
        <dc:title />
      </cc:Work>
    </rdf:RDF>
  </metadata>
  <g
     inkscape:label="Layer 1"
     inkscape:groupmode="layer"
     id="layer1"
     transform="translate(0,-168.5)"
     style="opacity:1">
    <flowRoot
       xml:space="preserve"
       id="flowRoot170"
       style="fill:black;fill-opacity:1;stroke:none;font-family:sans-serif;font-style:normal;font-weight:normal;font-size:40px;line-height:1.25;letter-spacing:0px;word-spacing:0px"><flowRegion
         id="flowRegion172"
         style=""><rect
           id="rect174"
           width="97.984795"
           height="325.26913"
           x="8.0812206"
           y="92.71994"
           style="" /></flowRegion><flowPara
         id="flowPara176" /></flowRoot>    <rect
       style="opacity:1;fill:#cccccc;stroke-width:0.30847374"
       id="rect288-0-2"
       width="91.94072"
       height="134.43654"
       x="-6.8153739"
       y="167.90884" />
    <g
       aria-label="d1"
       transform="matrix(1.1770993,0,0,0.849546,-8.285355,0.26726953)"
       inkscape:transform-center-x="2.1381562"
       inkscape:transform-center-y="1.6036199"
       style="font-style:normal;font-weight:normal;font-size:5.18594885px;line-height:1.25;font-family:sans-serif;letter-spacing:0px;word-spacing:0px;opacity:1;fill:#000000;fill-opacity:1;stroke:none;stroke-width:0.12964872"
       id="text12">
      <path
         d="m 14.822496,229.57718 v -1.53451 h 0.465925 v 3.9401 h -0.465925 v -0.42541 q -0.146868,0.25322 -0.372234,0.3773 -0.222834,0.12155 -0.536827,0.12155 -0.514036,0 -0.838158,-0.41022 -0.32159,-0.41022 -0.32159,-1.07872 0,-0.6685 0.32159,-1.07872 0.324122,-0.41021 0.838158,-0.41021 0.313993,0 0.536827,0.12408 0.225366,0.12154 0.372234,0.37476 z m -1.587691,0.99009 q 0,0.51404 0.210173,0.80777 0.212705,0.29121 0.582407,0.29121 0.369701,0 0.582406,-0.29121 0.212705,-0.29373 0.212705,-0.80777 0,-0.51403 -0.212705,-0.80524 -0.212705,-0.29373 -0.582406,-0.29373 -0.369702,0 -0.582407,0.29373 -0.210173,0.29121 -0.210173,0.80524 z"
         style="stroke-width:0.12964872"
         id="path443"
         inkscape:connector-curvature="0" />
      <path
         d="m 16.40259,231.5523 h 0.835626 v -2.88418 l -0.90906,0.18232 v -0.46593 l 0.903996,-0.18231 h 0.511504 v 3.3501 h 0.835627 v 0.43047 H 16.40259 Z"
         style="stroke-width:0.12964872"
         id="path445"
         inkscape:connector-curvature="0" />
    </g>
    <g
       aria-label="d2"
       transform="matrix(1.1770993,0,0,0.849546,12.027129,-1.0690781)"
       style="font-style:normal;font-weight:normal;font-size:5.18594885px;line-height:1.25;font-family:sans-serif;letter-spacing:0px;word-spacing:0px;opacity:1;fill:#000000;fill-opacity:1;stroke:none;stroke-width:0.12964872"
       id="text12-8">
      <path
         d="m 47.064699,230.20639 v -1.53451 h 0.465925 v 3.9401 h -0.465925 v -0.42541 q -0.146868,0.25322 -0.372234,0.3773 -0.222834,0.12155 -0.536827,0.12155 -0.514037,0 -0.838158,-0.41022 -0.32159,-0.41022 -0.32159,-1.07872 0,-0.6685 0.32159,-1.07871 0.324121,-0.41022 0.838158,-0.41022 0.313993,0 0.536827,0.12408 0.225366,0.12154 0.372234,0.37476 z m -1.587691,0.99009 q 0,0.51404 0.210173,0.80778 0.212705,0.2912 0.582406,0.2912 0.369702,0 0.582407,-0.2912 0.212705,-0.29374 0.212705,-0.80778 0,-0.51403 -0.212705,-0.80524 -0.212705,-0.29373 -0.582407,-0.29373 -0.369701,0 -0.582406,0.29373 -0.210173,0.29121 -0.210173,0.80524 z"
         style="stroke-width:0.12964872"
         id="path448"
         inkscape:connector-curvature="0" />
      <path
         d="m 48.996768,232.18151 h 1.785202 v 0.43047 h -2.400527 v -0.43047 q 0.291204,-0.30133 0.792579,-0.80777 0.503909,-0.50897 0.633051,-0.65584 0.245623,-0.27601 0.341847,-0.46593 0.09876,-0.19244 0.09876,-0.3773 0,-0.30133 -0.212705,-0.49124 -0.210173,-0.18992 -0.549488,-0.18992 -0.240559,0 -0.508972,0.0836 -0.265881,0.0836 -0.569746,0.25322 v -0.51656 q 0.308929,-0.12408 0.577342,-0.18739 0.268414,-0.0633 0.491247,-0.0633 0.587471,0 0.936915,0.29373 0.349444,0.29374 0.349444,0.78499 0,0.23296 -0.08863,0.44313 -0.0861,0.20764 -0.316525,0.49125 -0.0633,0.0734 -0.40262,0.42541 -0.339315,0.34944 -0.957173,0.97996 z"
         style="stroke-width:0.12964872"
         id="path450"
         inkscape:connector-curvature="0" />
    </g>
    <g
       aria-label="f1"
       transform="matrix(1.1770993,0,0,0.849546,-6.4144685,-0.80180861)"
       style="font-style:normal;font-weight:normal;font-size:5.18594885px;line-height:1.25;font-family:sans-serif;letter-spacing:0px;word-spacing:0px;opacity:1;fill:#000000;fill-opacity:1;stroke:none;stroke-width:0.12964872"
       id="text12-9">
      <path
         d="m 13.710848,267.05342 v 0.38743 h -0.445667 q -0.250688,0 -0.349444,0.10129 -0.09622,0.10129 -0.09622,0.36464 v 0.25068 h 0.767257 v 0.36211 h -0.767257 v 2.47396 H 12.35106 v -2.47396 h -0.445667 v -0.36211 h 0.445667 v -0.19751 q 0,-0.47352 0.220302,-0.68876 0.220301,-0.21777 0.698887,-0.21777 z"
         style="stroke-width:0.12964872"
         id="path453"
         inkscape:connector-curvature="0" />
      <path
         d="m 14.252739,270.56306 h 0.835627 v -2.88418 l -0.909061,0.18232 v -0.46593 l 0.903996,-0.18232 h 0.511505 v 3.35011 h 0.835627 v 0.43047 h -2.177694 z"
         style="stroke-width:0.12964872"
         id="path455"
         inkscape:connector-curvature="0" />
    </g>
    <g
       aria-label="f2"
       transform="matrix(1.1770993,0,0,0.849546,13.898016,-2.6726953)"
       style="font-style:normal;font-weight:normal;font-size:5.18594885px;line-height:1.25;font-family:sans-serif;letter-spacing:0px;word-spacing:0px;opacity:1;fill:#000000;fill-opacity:1;stroke:none;stroke-width:0.12964872"
       id="text12-0">
      <path
         d="m 45.725991,266.42421 v 0.38743 h -0.445668 q -0.250688,0 -0.349444,0.10129 -0.09622,0.10129 -0.09622,0.36464 v 0.25068 h 0.767257 v 0.36211 h -0.767257 v 2.47396 h -0.468458 v -2.47396 h -0.445667 v -0.36211 h 0.445667 v -0.19751 q 0,-0.47352 0.220302,-0.68876 0.220302,-0.21777 0.698888,-0.21777 z"
         style="stroke-width:0.12964872"
         id="path458"
         inkscape:connector-curvature="0" />
      <path
         d="m 46.619858,269.93384 h 1.785202 v 0.43048 h -2.400527 v -0.43048 q 0.291203,-0.30133 0.792579,-0.80777 0.503908,-0.50897 0.63305,-0.65584 0.245624,-0.27601 0.341848,-0.46592 0.09875,-0.19245 0.09875,-0.3773 0,-0.30133 -0.212705,-0.49125 -0.210172,-0.18991 -0.549487,-0.18991 -0.240559,0 -0.508973,0.0836 -0.265881,0.0836 -0.569745,0.25322 v -0.51657 q 0.308928,-0.12408 0.577342,-0.18738 0.268413,-0.0633 0.491247,-0.0633 0.587471,0 0.936914,0.29374 0.349444,0.29373 0.349444,0.78498 0,0.23296 -0.08863,0.44314 -0.0861,0.20764 -0.316525,0.49124 -0.0633,0.0734 -0.40262,0.42541 -0.339315,0.34945 -0.957172,0.97996 z"
         style="stroke-width:0.12964872"
         id="path460"
         inkscape:connector-curvature="0" />
    </g>
    <g
       aria-label="d"
       transform="scale(1.1124397,0.89892513)"
       style="font-style:normal;font-weight:normal;font-size:7.54741907px;line-height:1.25;font-family:sans-serif;letter-spacing:0px;word-spacing:0px;fill:#000000;fill-opacity:1;stroke:none;stroke-width:0.18868546"
       id="text512">
      <path
         d="m 34.048205,215.75529 v -2.23327 h 0.678089 v 5.73427 h -0.678089 v -0.61913 q -0.213745,0.36853 -0.541733,0.54911 -0.324303,0.17689 -0.781276,0.17689 -0.748108,0 -1.219822,-0.59701 -0.468029,-0.59702 -0.468029,-1.56993 0,-0.97291 0.468029,-1.56992 0.471714,-0.59701 1.219822,-0.59701 0.456973,0 0.781276,0.18058 0.327988,0.17689 0.541733,0.54542 z m -2.31066,1.44093 q 0,0.74811 0.305877,1.1756 0.309562,0.42381 0.847611,0.42381 0.538048,0 0.84761,-0.42381 0.309562,-0.42749 0.309562,-1.1756 0,-0.7481 -0.309562,-1.17191 -0.309562,-0.42749 -0.84761,-0.42749 -0.538049,0 -0.847611,0.42749 -0.305877,0.42381 -0.305877,1.17191 z"
         style="stroke-width:0.18868546"
         id="path67" />
    </g>
    <g
       aria-label="f"
       transform="scale(1.1124397,0.89892513)"
       style="font-style:normal;font-weight:normal;font-size:7.54741907px;line-height:1.25;font-family:sans-serif;letter-spacing:0px;word-spacing:0px;opacity:1;fill:#000000;fill-opacity:1;stroke:none;stroke-width:0.18868546"
       id="text512-1">
      <path
         d="m 34.175632,249.57585 v 0.56385 h -0.648606 q -0.364841,0 -0.508566,0.14741 -0.14004,0.14741 -0.14004,0.53067 v 0.36484 h 1.116634 v 0.527 H 32.87842 v 3.6005 h -0.681774 v -3.6005 H 31.54804 v -0.527 h 0.648606 v -0.28745 q 0,-0.68914 0.320618,-1.00239 0.320618,-0.31693 1.017132,-0.31693 z"
         style="stroke-width:0.18868546"
         id="path70" />
    </g>
    <g
       aria-label="trig"
       transform="matrix(0.8245246,0,0,1.2128201,0.26726953,-13.363476)"
       style="font-style:normal;font-weight:normal;font-size:5.53829861px;line-height:1.25;font-family:sans-serif;letter-spacing:0px;word-spacing:0px;fill:#000000;fill-opacity:1;stroke:none;stroke-width:0.13845746"
       id="text151">
      <path
         d="m 8.0172141,215.87489 v 0.85995 h 1.0249098 v 0.38671 H 8.0172141 v 1.64418 q 0,0.37048 0.1000572,0.47595 0.1027614,0.10546 0.4137498,0.10546 h 0.5111028 v 0.41646 H 8.5310211 q -0.5760047,0 -0.7950487,-0.21364 -0.219044,-0.21634 -0.219044,-0.78423 v -1.64418 H 7.151855 v -0.38671 h 0.3650734 v -0.85995 z"
         style="stroke-width:0.13845746"
         id="path153"
         inkscape:connector-curvature="0" />
      <path
         d="m 11.454312,217.19997 q -0.08383,-0.0487 -0.183888,-0.0703 -0.09735,-0.0243 -0.21634,-0.0243 -0.421863,0 -0.649019,0.27583 -0.224453,0.27313 -0.224453,0.78694 v 1.59551 H 9.6803262 v -3.02876 h 0.5002858 v 0.47054 q 0.156846,-0.27584 0.408341,-0.40834 0.251495,-0.13522 0.61116,-0.13522 0.05138,0 0.113579,0.008 0.0622,0.005 0.137916,0.0189 z"
         style="stroke-width:0.13845746"
         id="path155"
         inkscape:connector-curvature="0" />
      <path
         d="m 11.981641,216.73484 h 0.497581 v 3.02876 h -0.497581 z m 0,-1.17905 h 0.497581 v 0.63009 h -0.497581 z"
         style="stroke-width:0.13845746"
         id="path157"
         inkscape:connector-curvature="0" />
      <path
         d="m 15.510684,218.21406 q 0,-0.54085 -0.224453,-0.83831 -0.221748,-0.29747 -0.624681,-0.29747 -0.400228,0 -0.624681,0.29747 -0.221748,0.29746 -0.221748,0.83831 0,0.53815 0.221748,0.83561 0.224453,0.29747 0.624681,0.29747 0.402933,0 0.624681,-0.29747 0.224453,-0.29746 0.224453,-0.83561 z m 0.497581,1.17365 q 0,0.77341 -0.343439,1.1493 -0.34344,0.37859 -1.051952,0.37859 -0.262312,0 -0.494878,-0.0406 -0.232565,-0.0379 -0.451609,-0.11899 v -0.48406 q 0.219044,0.11899 0.43268,0.17578 0.213635,0.0568 0.435383,0.0568 0.489469,0 0.732852,-0.2569 0.243382,-0.2542 0.243382,-0.77071 v -0.24609 q -0.154142,0.26772 -0.39482,0.40023 -0.240678,0.13251 -0.576005,0.13251 -0.557075,0 -0.89781,-0.42457 -0.340735,-0.42457 -0.340735,-1.12497 0,-0.7031 0.340735,-1.12767 0.340735,-0.42457 0.89781,-0.42457 0.335327,0 0.576005,0.13251 0.240678,0.13251 0.39482,0.40023 v -0.45972 h 0.497581 z"
         style="stroke-width:0.13845746"
         id="path159"
         inkscape:connector-curvature="0" />
    </g>
    <g
       aria-label="out1"
       transform="scale(0.90193348,1.1087292)"
       style="font-style:normal;font-weight:normal;font-size:6.30177307px;line-height:1.25;font-family:sans-serif;letter-spacing:0px;word-spacing:0px;fill:#000000;fill-opacity:1;stroke:none;stroke-width:0.15754431"
       id="text164">
      <path
         d="m 6.0813164,263.42447 q -0.4554016,0 -0.7200268,0.35694 -0.2646253,0.35386 -0.2646253,0.97234 0,0.61849 0.2615482,0.97542 0.2646253,0.35386 0.7231039,0.35386 0.4523245,0 0.7169497,-0.35693 0.2646253,-0.35694 0.2646253,-0.97235 0,-0.61233 -0.2646253,-0.96926 -0.2646252,-0.36002 -0.7169497,-0.36002 z m 0,-0.48002 q 0.738489,0 1.1600432,0.48002 0.4215541,0.48002 0.4215541,1.32928 0,0.84619 -0.4215541,1.32928 -0.4215542,0.48002 -1.1600432,0.48002 -0.7415661,0 -1.1631203,-0.48002 -0.4184771,-0.48309 -0.4184771,-1.32928 0,-0.84926 0.4184771,-1.32928 0.4215542,-0.48002 1.1631203,-0.48002 z"
         style="stroke-width:0.15754431"
         id="path166" />
      <path
         d="m 8.5398694,265.11377 v -2.08624 h 0.5661749 v 2.0647 q 0,0.48925 0.1907764,0.73541 0.1907763,0.24308 0.572329,0.24308 0.4584783,0 0.7231043,-0.29231 0.267702,-0.29232 0.267702,-0.79696 v -1.95392 h 0.566175 v 3.44629 h -0.566175 v -0.52925 q -0.206162,0.31385 -0.480018,0.46771 -0.270779,0.15077 -0.6307928,0.15077 -0.5938683,0 -0.901572,-0.36924 -0.3077038,-0.36925 -0.3077038,-1.08004 z m 1.4246684,-2.16932 z"
         style="stroke-width:0.15754431"
         id="path168" />
      <path
         d="m 13.158503,262.04904 v 0.97849 H 14.3247 v 0.44002 h -1.166197 v 1.87084 q 0,0.42155 0.11385,0.54156 0.116928,0.12 0.470787,0.12 h 0.58156 v 0.47387 h -0.58156 q -0.655409,0 -0.904649,-0.24309 -0.24924,-0.24616 -0.24924,-0.89234 v -1.87084 h -0.4154 v -0.44002 h 0.4154 v -0.97849 z"
         style="stroke-width:0.15754431"
         id="path170" />
      <path
         d="m 15.260119,265.95072 h 1.015423 v -3.50475 l -1.104657,0.22155 v -0.56617 l 1.098503,-0.22155 h 0.621561 v 4.07092 h 1.015423 v 0.5231 h -2.646253 z"
         style="stroke-width:0.15754431"
         id="path172" />
    </g>
    <g
       aria-label="out"
       transform="scale(0.83765214,1.193813)"
       style="font-style:normal;font-weight:normal;font-size:7.92751551px;line-height:1.25;font-family:sans-serif;letter-spacing:0px;word-spacing:0px;fill:#000000;fill-opacity:1;stroke:none;stroke-width:0.19818789"
       id="text177">
      <path
         d="m 39.69884,244.06445 q -0.572887,0 -0.905781,0.44902 -0.332893,0.44515 -0.332893,1.22319 0,0.77804 0.329022,1.22706 0.332894,0.44515 0.909652,0.44515 0.569016,0 0.90191,-0.44902 0.332893,-0.44902 0.332893,-1.22319 0,-0.7703 -0.332893,-1.21932 -0.332894,-0.45289 -0.90191,-0.45289 z m 0,-0.60386 q 0.929006,0 1.459313,0.60386 0.530307,0.60385 0.530307,1.67221 0,1.06448 -0.530307,1.67221 -0.530307,0.60385 -1.459313,0.60385 -0.932877,0 -1.463184,-0.60385 -0.526437,-0.60773 -0.526437,-1.67221 0,-1.06836 0.526437,-1.67221 0.530307,-0.60386 1.463184,-0.60386 z"
         style="stroke-width:0.19818789"
         id="path183" />
      <path
         d="m 42.791655,246.18955 v -2.62444 h 0.712237 v 2.59734 q 0,0.61547 0.239993,0.92514 0.239994,0.30579 0.71998,0.30579 0.576758,0 0.909651,-0.36773 0.336765,-0.36773 0.336765,-1.00255 v -2.45799 h 0.712238 v 4.33536 h -0.712238 v -0.66579 q -0.259348,0.39483 -0.603854,0.58837 -0.340635,0.18967 -0.793526,0.18967 -0.747075,0 -1.134161,-0.4645 -0.387085,-0.4645 -0.387085,-1.35867 z m 1.792206,-2.72896 z"
         style="stroke-width:0.19818789"
         id="path185" />
      <path
         d="m 48.601811,242.33417 v 1.23094 h 1.467055 v 0.55353 h -1.467055 v 2.35348 q 0,0.53031 0.143222,0.68127 0.147093,0.15096 0.592241,0.15096 h 0.731592 v 0.59612 h -0.731592 q -0.824492,0 -1.138032,-0.3058 -0.313539,-0.30967 -0.313539,-1.12255 v -2.35348 h -0.522566 v -0.55353 h 0.522566 v -1.23094 z"
         style="stroke-width:0.19818789"
         id="path187" />
    </g>
    <g
       aria-label="out2"
       transform="scale(0.78796525,1.2690915)"
       style="font-style:normal;font-weight:normal;font-size:6.39020348px;line-height:1.25;font-family:sans-serif;letter-spacing:0px;word-spacing:0px;fill:#000000;fill-opacity:1;stroke:none;stroke-width:0.15975508"
       id="text181">
      <path
         d="m 81.715203,230.11876 q -0.461792,0 -0.730131,0.36194 -0.268338,0.35883 -0.268338,0.98599 0,0.62716 0.265218,0.98911 0.268339,0.35882 0.733251,0.35882 0.458672,0 0.72701,-0.36194 0.268339,-0.36195 0.268339,-0.98599 0,-0.62092 -0.268339,-0.98287 -0.268338,-0.36506 -0.72701,-0.36506 z m 0,-0.48676 q 0.748852,0 1.176322,0.48676 0.427469,0.48675 0.427469,1.34793 0,0.85806 -0.427469,1.34793 -0.42747,0.48676 -1.176322,0.48676 -0.751972,0 -1.179442,-0.48676 -0.424349,-0.48987 -0.424349,-1.34793 0,-0.86118 0.424349,-1.34793 0.42747,-0.48676 1.179442,-0.48676 z"
         style="stroke-width:0.15975508"
         id="path190" />
      <path
         d="m 84.208256,231.83176 v -2.11551 h 0.57412 v 2.09366 q 0,0.49612 0.193453,0.74574 0.193454,0.24649 0.580361,0.24649 0.464912,0 0.73325,-0.29642 0.271459,-0.29642 0.271459,-0.80813 v -1.98134 h 0.57412 v 3.49464 h -0.57412 v -0.53668 q -0.209054,0.31827 -0.486754,0.47428 -0.274579,0.15289 -0.639644,0.15289 -0.602202,0 -0.914223,-0.37443 -0.312022,-0.37442 -0.312022,-1.09519 z m 1.44466,-2.19976 z"
         style="stroke-width:0.15975508"
         id="path192" />
      <path
         d="m 88.891701,228.72402 v 0.99223 h 1.182562 v 0.44619 h -1.182562 v 1.89709 q 0,0.42747 0.115448,0.54916 0.118568,0.12169 0.477393,0.12169 h 0.589721 v 0.48051 h -0.589721 q -0.664606,0 -0.917344,-0.2465 -0.252737,-0.24961 -0.252737,-0.90486 v -1.89709 h -0.421229 v -0.44619 h 0.421229 v -0.99223 z"
         style="stroke-width:0.15975508"
         id="path194" />
      <path
         d="m 91.456519,232.68045 h 2.199753 v 0.53044 h -2.957965 v -0.53044 q 0.358825,-0.3713 0.976627,-0.99534 0.620924,-0.62717 0.780055,-0.80814 0.302661,-0.3401 0.421229,-0.57412 0.121688,-0.23714 0.121688,-0.46491 0,-0.37131 -0.262098,-0.60532 -0.258978,-0.23402 -0.677087,-0.23402 -0.29642,0 -0.627163,0.10297 -0.327623,0.10296 -0.702049,0.31202 v -0.63653 q 0.380666,-0.15289 0.711409,-0.23089 0.330743,-0.078 0.605322,-0.078 0.72389,0 1.15448,0.36195 0.43059,0.36194 0.43059,0.96726 0,0.28706 -0.109207,0.54604 -0.106088,0.25586 -0.390027,0.60532 -0.07801,0.0905 -0.496115,0.5242 -0.418109,0.43059 -1.179442,1.20752 z"
         style="stroke-width:0.15975508"
         id="path196" />
    </g>
    <g
       aria-label="reset"
       transform="scale(0.79957744,1.2506606)"
       style="font-style:normal;font-weight:normal;font-size:5.77714491px;line-height:1.25;font-family:sans-serif;letter-spacing:0px;word-spacing:0px;display:inline;fill:#000000;fill-opacity:1;stroke:none;stroke-width:0.14442861"
       id="text88">
      <path
         d="m 36.144686,208.76661 q -0.08745,-0.0508 -0.191819,-0.0733 -0.101552,-0.0254 -0.22567,-0.0254 -0.440056,0 -0.677009,0.28773 -0.234132,0.28491 -0.234132,0.82087 v 1.66432 h -0.521862 v -3.15938 h 0.521862 v 0.49083 q 0.16361,-0.28773 0.425951,-0.42595 0.262341,-0.14104 0.637517,-0.14104 0.0536,0 0.118477,0.008 0.06488,0.006 0.143864,0.0197 z"
         style="stroke-width:0.14442861"
         id="path108" />
      <path
         d="m 39.273032,209.73135 v 0.25388 h -2.386457 q 0.03385,0.53596 0.32158,0.81805 0.290549,0.27927 0.806769,0.27927 0.299012,0 0.578278,-0.0734 0.282088,-0.0733 0.558533,-0.22003 v 0.49084 q -0.279266,0.11847 -0.572637,0.18053 -0.293371,0.0621 -0.595204,0.0621 -0.755993,0 -1.19887,-0.44005 -0.440056,-0.44006 -0.440056,-1.19041 0,-0.77574 0.417489,-1.2299 0.42031,-0.45698 1.131169,-0.45698 0.637517,0 1.007051,0.41184 0.372355,0.40903 0.372355,1.11425 z m -0.51904,-0.15233 q -0.0056,-0.42595 -0.239774,-0.67983 -0.231311,-0.25388 -0.61495,-0.25388 -0.434414,0 -0.696755,0.24542 -0.25952,0.24541 -0.299013,0.69111 z"
         style="stroke-width:0.14442861"
         id="path110" />
      <path
         d="m 42.139038,208.37451 v 0.49083 q -0.220028,-0.11283 -0.456981,-0.16925 -0.236954,-0.0564 -0.490832,-0.0564 -0.386459,0 -0.5811,0.11848 -0.191819,0.11847 -0.191819,0.35543 0,0.18053 0.138223,0.2849 0.138223,0.10156 0.555712,0.19465 l 0.177714,0.0395 q 0.552891,0.11847 0.784203,0.33568 0.234132,0.21439 0.234132,0.60085 0,0.44005 -0.349788,0.69675 -0.346967,0.2567 -0.956275,0.2567 -0.253879,0 -0.530324,-0.0508 -0.273625,-0.048 -0.578279,-0.14669 v -0.53597 q 0.287729,0.14951 0.566995,0.22567 0.279266,0.0734 0.552891,0.0734 0.366713,0 0.564174,-0.12412 0.197461,-0.12694 0.197461,-0.35543 0,-0.21157 -0.143864,-0.3244 -0.141044,-0.11284 -0.623413,-0.21721 l -0.180536,-0.0423 q -0.482369,-0.10155 -0.696755,-0.3103 -0.214386,-0.21156 -0.214386,-0.57828 0,-0.44569 0.315938,-0.68829 0.315937,-0.24259 0.897037,-0.24259 0.287729,0 0.541607,0.0423 0.253879,0.0423 0.468265,0.12694 z"
         style="stroke-width:0.14442861"
         id="path112" />
      <path
         d="m 45.840022,209.73135 v 0.25388 h -2.386457 q 0.03385,0.53596 0.321579,0.81805 0.29055,0.27927 0.806769,0.27927 0.299013,0 0.578279,-0.0734 0.282087,-0.0733 0.558532,-0.22003 v 0.49084 q -0.279266,0.11847 -0.572636,0.18053 -0.293371,0.0621 -0.595204,0.0621 -0.755994,0 -1.198871,-0.44005 -0.440056,-0.44006 -0.440056,-1.19041 0,-0.77574 0.417489,-1.2299 0.42031,-0.45698 1.13117,-0.45698 0.637517,0 1.007051,0.41184 0.372355,0.40903 0.372355,1.11425 z m -0.51904,-0.15233 q -0.0056,-0.42595 -0.239775,-0.67983 -0.231311,-0.25388 -0.61495,-0.25388 -0.434414,0 -0.696755,0.24542 -0.25952,0.24541 -0.299012,0.69111 z"
         style="stroke-width:0.14442861"
         id="path114" />
      <path
         d="m 47.205323,207.38438 v 0.89704 h 1.06911 v 0.40338 h -1.06911 v 1.71509 q 0,0.38646 0.104372,0.49648 0.107193,0.11001 0.431594,0.11001 h 0.533144 v 0.43442 h -0.533144 q -0.600846,0 -0.829337,-0.22285 -0.22849,-0.22567 -0.22849,-0.81806 v -1.71509 h -0.380818 v -0.40338 h 0.380818 v -0.89704 z"
         style="stroke-width:0.14442861"
         id="path116" />
    </g>
    <g
       aria-label="trig2"
       transform="matrix(1.0311536,0,0,0.96978764,0,168.5)"
       style="display:inline;font-style:normal;font-weight:normal;font-size:6.07189751px;line-height:1.25;font-family:sans-serif;letter-spacing:0px;word-spacing:0px;fill:#000000;fill-opacity:1;stroke:none;stroke-width:0.15179743"
       id="text84">
      <path
         d="m 4.0755091,100.86047 v 0.94281 H 5.199166 v 0.42396 H 4.0755091 v 1.8026 q 0,0.40618 0.1096974,0.5218 0.1126622,0.11563 0.4536134,0.11563 H 5.199166 v 0.45658 H 4.6388199 q -0.631501,0 -0.8716493,-0.23422 -0.2401483,-0.23718 -0.2401483,-0.85979 v -1.8026 H 3.1267752 v -0.42396 h 0.4002471 v -0.94281 z"
         style="stroke-width:0.15179743"
         id="path91" />
      <path
         d="m 7.843762,102.31322 q -0.091909,-0.0534 -0.201606,-0.0771 -0.1067326,-0.0267 -0.2371835,-0.0267 -0.4625078,0 -0.7115505,0.3024 -0.2460779,0.29945 -0.2460779,0.86276 v 1.74923 H 5.8988573 v -3.32057 h 0.5484868 v 0.51587 q 0.1719581,-0.30241 0.4476839,-0.44768 0.2757258,-0.14824 0.6700434,-0.14824 0.056331,0 0.1245213,0.009 0.06819,0.006 0.1512045,0.0208 z"
         style="stroke-width:0.15179743"
         id="path93" />
      <path
         d="m 8.4218968,101.80328 h 0.5455221 v 3.32057 H 8.4218968 Z m 0,-1.29265 h 0.5455221 v 0.6908 H 8.4218968 Z"
         style="stroke-width:0.15179743"
         id="path95" />
      <path
         d="m 12.290953,103.42502 q 0,-0.59296 -0.246078,-0.91908 -0.243113,-0.32613 -0.684868,-0.32613 -0.438789,0 -0.684867,0.32613 -0.243113,0.32612 -0.243113,0.91908 0,0.59 0.243113,0.91612 0.246078,0.32613 0.684867,0.32613 0.441755,0 0.684868,-0.32613 0.246078,-0.32612 0.246078,-0.91612 z m 0.545522,1.28672 q 0,0.84793 -0.376529,1.26004 -0.376529,0.41507 -1.153305,0.41507 -0.287585,0 -0.542557,-0.0445 -0.254972,-0.0415 -0.495121,-0.13045 v -0.5307 q 0.240149,0.13045 0.474367,0.19271 0.234219,0.0623 0.477332,0.0623 0.536628,0 0.803459,-0.28165 0.266832,-0.27869 0.266832,-0.84497 v -0.2698 q -0.168994,0.29352 -0.43286,0.43879 -0.263867,0.14528 -0.631501,0.14528 -0.610748,0 -0.984312,-0.46547 -0.3735638,-0.46548 -0.3735638,-1.23336 0,-0.77085 0.3735638,-1.23632 0.373564,-0.46547 0.984312,-0.46547 0.367634,0 0.631501,0.14527 0.263866,0.14528 0.43286,0.43879 v -0.50401 h 0.545522 z"
         style="stroke-width:0.15179743"
         id="path97" />
      <path
         d="m 14.553091,104.61983 h 2.090179 v 0.50402 h -2.810624 v -0.50402 q 0.340951,-0.35281 0.92798,-0.94577 0.589994,-0.59592 0.741199,-0.76788 0.287585,-0.32316 0.400247,-0.54552 0.115627,-0.22532 0.115627,-0.44175 0,-0.35281 -0.249043,-0.57517 -0.246078,-0.22236 -0.64336,-0.22236 -0.281655,0 -0.595924,0.0978 -0.311303,0.0978 -0.667078,0.29648 v -0.60481 q 0.361705,-0.14528 0.675973,-0.2194 0.314268,-0.0741 0.57517,-0.0741 0.687832,0 1.096973,0.34392 0.409142,0.34391 0.409142,0.91908 0,0.27276 -0.103768,0.51884 -0.100803,0.24312 -0.370599,0.57517 -0.07412,0.086 -0.471402,0.49809 -0.397283,0.40914 -1.120692,1.14737 z"
         style="stroke-width:0.15179743"
         id="path99" />
    </g>
  </g>
  <g
     inkscape:groupmode="layer"
     id="layer3"
     inkscape:label="Layer 2" />
  <g
     inkscape:groupmode="layer"
     id="layer2"
     inkscape:label="components"
     style="display:inline">
    <circle
       id="path197-2"
       cx="9.8889713"
       cy="15.979528"
       r="4.4099469"
       style="fill:#ff0000;stroke-width:0.26458332"
       inkscape:label="d1" />
    <circle
       id="path197-2-7"
       cx="68.688263"
       cy="15.712259"
       r="4.4099469"
       style="fill:#ff0000;stroke-width:0.26458332"
       inkscape:label="d2" />
    <circle
       id="path197-2-0"
       cx="10.423512"
       cy="48.319141"
       r="4.4099469"
       style="fill:#ff0000;stroke-width:0.26458332"
       inkscape:label="f1" />
    <circle
       id="path197-2-9"
       cx="67.886459"
       cy="46.982796"
       r="4.4099469"
       style="fill:#ff0000;stroke-width:0.26458332"
       inkscape:label="f2" />
    <circle
       id="path197-2-3"
       cx="36.615925"
       cy="47.784607"
       r="4.4099469"
       style="fill:#ff0000;stroke-width:0.26458332"
       inkscape:label="f" />
    <circle
       id="path197-2-6"
       cx="37.150467"
       cy="15.17772"
       r="4.4099469"
       style="fill:#ff0000;stroke-width:0.26458332"
       inkscape:label="d" />
    <circle
       style="display:inline;opacity:1;vector-effect:none;fill:#0000ff;fill-opacity:1;fill-rule:evenodd;stroke:none;stroke-width:1;stroke-linecap:butt;stroke-linejoin:miter;stroke-miterlimit:4;stroke-dasharray:none;stroke-dashoffset:0;stroke-opacity:1;paint-order:normal"
       id="circle4958"
       cx="9.3544331"
       cy="112.99837"
       r="4"
       inkscape:label="out1" />
    <circle
       style="display:inline;opacity:1;vector-effect:none;fill:#0000ff;fill-opacity:1;fill-rule:evenodd;stroke:none;stroke-width:1;stroke-linecap:butt;stroke-linejoin:miter;stroke-miterlimit:4;stroke-dasharray:none;stroke-dashoffset:0;stroke-opacity:1;paint-order:normal"
       id="circle4958-3"
       cx="37.150463"
       cy="112.7311"
       r="4"
       inkscape:label="out" />
    <circle
       style="display:inline;opacity:1;vector-effect:none;fill:#0000ff;fill-opacity:1;fill-rule:evenodd;stroke:none;stroke-width:1;stroke-linecap:butt;stroke-linejoin:miter;stroke-miterlimit:4;stroke-dasharray:none;stroke-dashoffset:0;stroke-opacity:1;paint-order:normal"
       id="circle4958-6"
       cx="67.619186"
       cy="113.80015"
       r="4"
       inkscape:label="out2" />
    <circle
       style="fill:#00ff00;stroke-width:0.26458332"
       id="path73"
       cx="9.7553377"
       cy="73.308838"
       r="3.8754082"
       inkscape:label="clock" />
    <circle
       style="opacity:1;display:inline;fill:#00ff00;stroke-width:0.26458332"
       id="path73-3"
       cx="9.8889723"
       cy="92.953156"
       r="3.8754082"
       inkscape:label="clock2" />
    <circle
       style="display:inline;opacity:1;fill:#00ff00;stroke-width:0.26458332"
       id="path73-3-3"
       cx="31.537804"
       cy="84.400528"
       r="3.8754082"
       inkscape:label="reset" />
  </g>
</svg>
